<svg width="127" height="65" viewBox="0 0 127 65" fill="none" xmlns="http://www.w3.org/2000/svg">
<path d="M5.25025 39.1021C2.06564 46.7259 0.285805 54.9998 0.250542 63.2534H16.5907C16.6233 57.2104 17.8389 51.231 20.1701 45.6501C22.5334 39.9924 25.9968 34.856 30.3607 30.5366C34.7247 26.2172 39.9031 22.8001 45.598 20.4817C51.2929 18.1634 57.3919 16.9897 63.5439 17.0281C69.6959 17.0665 75.7796 18.3162 81.4449 20.7054C87.1101 23.0946 92.2452 26.5762 96.5545 30.9497C100.864 35.3232 104.262 40.5024 106.554 46.1892C108.815 51.7987 109.955 57.7928 109.912 63.8357L126.748 64.0458C126.819 55.7926 125.267 47.6044 122.179 39.9434C119.061 32.205 114.436 25.1573 108.572 19.2058C102.708 13.2543 95.72 8.5165 88.0104 5.26512C80.3007 2.01375 72.0216 0.312988 63.6494 0.260744C55.2932 0.2086 46.7867 2.52565 39.2515 5.2394C30.7556 9.51034 25.2408 12.7171 18.745 18.6886C12.8113 24.5626 8.46745 31.4003 5.25025 39.1021Z" stroke="#87888C" stroke-opacity="0.4" stroke-width="0.5"/>
</svg>
