<svg width="18" height="18" viewBox="0 0 18 18" fill="none" xmlns="http://www.w3.org/2000/svg">
<g clip-path="url(#clip0_1_187)">
<path d="M8.54905 10.3577V10.3578C8.54881 10.6726 8.42372 10.9743 8.20124 11.197C7.97876 11.4196 7.67706 11.5449 7.36231 11.5454L7.36186 11.5454L2.8395 11.5424L8.54905 10.3577ZM8.54905 10.3577V7.03699C8.54905 6.38191 8.01805 5.85004 7.362 5.85004H2.8395C2.68354 5.85004 2.52911 5.88077 2.38503 5.94048C2.24096 6.00018 2.11006 6.08769 1.99982 6.19801C1.88958 6.30832 1.80216 6.43927 1.74256 6.58339C1.68295 6.7275 1.65234 6.88195 1.65245 7.0379M8.54905 10.3577L1.857 7.03774M1.65245 10.3545C1.65234 10.5105 1.68295 10.6649 1.74256 10.809C1.80216 10.9531 1.88958 11.0841 1.99982 11.1944C2.11006 11.3047 2.24096 11.3922 2.38503 11.4519C2.52907 11.5116 2.68345 11.5424 2.83936 11.5424L2.46334 11.263C2.34409 11.2136 2.23575 11.1411 2.1445 11.0498C2.05326 10.9585 1.9809 10.8501 1.93157 10.7309C1.88224 10.6116 1.8569 10.4837 1.857 10.3547V7.03774M1.65245 10.3545L1.85669 10.3547H1.65245V10.3545ZM1.65245 10.3545V7.0379M1.65245 7.0379L1.857 7.03774M1.65245 7.0379V7.03774H1.857M1.03555 6.53829V6.49501C1.05909 5.79552 1.63353 5.23548 2.3385 5.23548H14.3496C14.695 5.23604 15.026 5.3735 15.2701 5.61774C15.5143 5.86201 15.6516 6.19314 15.652 6.53849V10.8579C15.652 11.2029 15.515 11.5339 15.2713 11.7782C15.0275 12.0224 14.6969 12.1599 14.3518 12.1607C14.3517 12.1607 14.3517 12.1607 14.3516 12.1607L2.3385 12.1607C1.61895 12.1607 1.03555 11.5773 1.03555 10.8579V6.53829ZM17.0612 7.08795L16.8965 7.02954V6.53829C16.8965 5.86349 16.6285 5.21633 16.1513 4.73918C15.6741 4.26203 15.0268 3.99397 14.352 3.99397H2.34C1.66515 3.99397 1.01794 4.26203 0.540742 4.73918C0.0635446 5.21633 -0.204545 5.86349 -0.204545 6.53829V10.8579C-0.204545 11.5327 0.0635446 12.1798 0.540742 12.657C1.01794 13.1341 1.66515 13.4022 2.34 13.4022H14.352C15.0268 13.4022 15.6741 13.1341 16.1513 12.657C16.6285 12.1798 16.8965 11.5327 16.8965 10.8579V10.3542L17.0489 10.3106L17.0594 10.3076L17.0595 10.308L17.0719 10.3036C17.7319 10.0686 18.2053 9.43834 18.2053 8.69733C18.2053 7.9555 17.7311 7.32569 17.0612 7.08795Z" fill="white" stroke="white" stroke-width="0.409091"/>
</g>
<defs>
<clipPath id="clip0_1_187">
<rect width="18" height="17.9983" fill="white"/>
</clipPath>
</defs>
</svg>
